<svg width="167" height="50" viewBox="0 0 167 50" fill="none" xmlns="http://www.w3.org/2000/svg">
<rect width="167" height="50" rx="25" fill="white"/>
<path fill-rule="evenodd" clip-rule="evenodd" d="M82.21 17.9998H81.27V10.7598H82.21V17.9998ZM54.9 17.9998H57.36C58.3134 17.9998 59.1167 17.6881 59.77 17.0648C60.4234 16.4414 60.75 15.5764 60.75 14.4698C60.75 13.3564 60.4267 12.4848 59.78 11.8548C59.1334 11.2248 58.3334 10.9098 57.38 10.9098H54.9V17.9998ZM57.33 17.1298H55.88V11.7798H57.35C58.0434 11.7798 58.615 12.0131 59.065 12.4798C59.515 12.9464 59.74 13.6098 59.74 14.4698C59.74 15.3231 59.5117 15.9798 59.055 16.4398C58.5984 16.8998 58.0234 17.1298 57.33 17.1298ZM62.99 16.8598C63.2834 17.1598 63.64 17.3098 64.06 17.3098C64.48 17.3098 64.835 17.1581 65.125 16.8548C65.415 16.5514 65.56 16.1298 65.56 15.5898C65.56 15.0564 65.415 14.6381 65.125 14.3348C64.835 14.0314 64.48 13.8798 64.06 13.8798C63.64 13.8798 63.285 14.0314 62.995 14.3348C62.705 14.6381 62.56 15.0564 62.56 15.5898C62.56 16.1298 62.7034 16.5531 62.99 16.8598ZM64.06 13.0398C63.3467 13.0398 62.7567 13.2831 62.29 13.7698C61.83 14.2498 61.6 14.8564 61.6 15.5898C61.6 16.3298 61.83 16.9414 62.29 17.4248C62.75 17.9081 63.34 18.1498 64.06 18.1498C64.78 18.1498 65.37 17.9081 65.83 17.4248C66.29 16.9414 66.52 16.3298 66.52 15.5898C66.52 14.8564 66.2884 14.2481 65.825 13.7648C65.3617 13.2814 64.7734 13.0398 64.06 13.0398ZM70.43 13.1898H71.4L72.65 16.8098L73.71 13.1898H74.7L73.14 17.9998H72.17L70.89 14.3398L69.64 17.9998H68.65L67.07 13.1898H68.1L69.18 16.8098L70.43 13.1898ZM76.59 17.9998V15.2198C76.59 14.8398 76.6884 14.5248 76.885 14.2748C77.0817 14.0248 77.3567 13.8998 77.71 13.8998C78.4567 13.8998 78.83 14.3031 78.83 15.1098V17.9998H79.77V14.9498C79.77 14.3898 79.6217 13.9331 79.325 13.5798C79.0284 13.2264 78.6034 13.0498 78.05 13.0498C77.3834 13.0498 76.89 13.3264 76.57 13.8798V13.1898H75.65V17.9998H76.59ZM85.87 17.3098C85.45 17.3098 85.0934 17.1598 84.8 16.8598C84.5134 16.5531 84.37 16.1298 84.37 15.5898C84.37 15.0564 84.515 14.6381 84.805 14.3348C85.095 14.0314 85.45 13.8798 85.87 13.8798C86.29 13.8798 86.645 14.0314 86.935 14.3348C87.225 14.6381 87.37 15.0564 87.37 15.5898C87.37 16.1298 87.225 16.5514 86.935 16.8548C86.645 17.1581 86.29 17.3098 85.87 17.3098ZM84.1 13.7698C84.5667 13.2831 85.1567 13.0398 85.87 13.0398C86.5834 13.0398 87.1717 13.2814 87.635 13.7648C88.0984 14.2481 88.33 14.8564 88.33 15.5898C88.33 16.3298 88.1 16.9414 87.64 17.4248C87.18 17.9081 86.59 18.1498 85.87 18.1498C85.15 18.1498 84.56 17.9081 84.1 17.4248C83.64 16.9414 83.41 16.3298 83.41 15.5898C83.41 14.8564 83.64 14.2498 84.1 13.7698ZM89.63 15.7148C89.3634 15.9648 89.23 16.2964 89.23 16.7098C89.23 17.1031 89.38 17.4414 89.68 17.7248C89.98 18.0081 90.3667 18.1498 90.84 18.1498C91.2267 18.1498 91.5484 18.0698 91.805 17.9098C92.0617 17.7498 92.2567 17.5631 92.39 17.3498C92.39 17.5831 92.4067 17.7998 92.44 17.9998H93.36C93.32 17.7598 93.3 17.4964 93.3 17.2098V14.7998C93.3 14.2864 93.1367 13.8648 92.81 13.5348C92.4834 13.2048 91.98 13.0398 91.3 13.0398C90.78 13.0398 90.3334 13.1848 89.96 13.4748C89.5867 13.7648 89.3767 14.1398 89.33 14.5998L90.23 14.8098C90.2634 14.5164 90.3734 14.2814 90.56 14.1048C90.7467 13.9281 91 13.8398 91.32 13.8398C91.6667 13.8398 91.9267 13.9198 92.1 14.0798C92.2734 14.2398 92.36 14.4464 92.36 14.6998C92.36 14.9064 92.2367 15.0264 91.99 15.0598L90.69 15.2498C90.25 15.3098 89.8967 15.4648 89.63 15.7148ZM90.97 17.3598C91.39 17.3598 91.7267 17.2464 91.98 17.0198C92.2334 16.7931 92.36 16.4331 92.36 15.9398V15.7198L90.89 15.9398C90.6767 15.9731 90.5067 16.0498 90.38 16.1698C90.2534 16.2898 90.19 16.4531 90.19 16.6598C90.19 16.8464 90.2617 17.0098 90.405 17.1498C90.5484 17.2898 90.7367 17.3598 90.97 17.3598ZM95.695 16.8198C95.445 16.4998 95.32 16.0864 95.32 15.5798C95.32 15.0798 95.45 14.6731 95.71 14.3598C95.97 14.0464 96.3134 13.8898 96.74 13.8898C97.1667 13.8898 97.5034 14.0431 97.75 14.3498C97.9967 14.6564 98.12 15.0598 98.12 15.5598C98.12 16.0664 97.9934 16.4831 97.74 16.8098C97.4867 17.1364 97.15 17.2998 96.73 17.2998C96.29 17.2998 95.945 17.1398 95.695 16.8198ZM98.1331 17.5291L98.13 17.2698C98.0034 17.5164 97.8117 17.7214 97.555 17.8848C97.2984 18.0481 96.9934 18.1298 96.64 18.1298C95.9534 18.1298 95.4017 17.8881 94.985 17.4048C94.5684 16.9214 94.36 16.3131 94.36 15.5798C94.36 14.8798 94.5734 14.2848 95 13.7948C95.4267 13.3048 95.9734 13.0598 96.64 13.0598C97.0334 13.0598 97.3534 13.1381 97.6 13.2948C97.8467 13.4514 98.0167 13.6431 98.11 13.8698V10.7598H99.04V17.1098C99.04 17.4364 99.0567 17.7331 99.09 17.9998H98.18C98.155 17.8598 98.1394 17.7029 98.1331 17.5291ZM105.2 17.3098C104.78 17.3098 104.423 17.1598 104.13 16.8598C103.843 16.5531 103.7 16.1298 103.7 15.5898C103.7 15.0564 103.845 14.6381 104.135 14.3348C104.425 14.0314 104.78 13.8798 105.2 13.8798C105.62 13.8798 105.975 14.0314 106.265 14.3348C106.555 14.6381 106.7 15.0564 106.7 15.5898C106.7 16.1298 106.555 16.5514 106.265 16.8548C105.975 17.1581 105.62 17.3098 105.2 17.3098ZM103.43 13.7698C103.897 13.2831 104.487 13.0398 105.2 13.0398C105.913 13.0398 106.502 13.2814 106.965 13.7648C107.428 14.2481 107.66 14.8564 107.66 15.5898C107.66 16.3298 107.43 16.9414 106.97 17.4248C106.51 17.9081 105.92 18.1498 105.2 18.1498C104.48 18.1498 103.89 17.9081 103.43 17.4248C102.97 16.9414 102.74 16.3298 102.74 15.5898C102.74 14.8564 102.97 14.2498 103.43 13.7698ZM109.8 17.9998V15.2198C109.8 14.8398 109.898 14.5248 110.095 14.2748C110.292 14.0248 110.567 13.8998 110.92 13.8998C111.667 13.8998 112.04 14.3031 112.04 15.1098V17.9998H112.98V14.9498C112.98 14.3898 112.832 13.9331 112.535 13.5798C112.238 13.2264 111.813 13.0498 111.26 13.0498C110.593 13.0498 110.1 13.3264 109.78 13.8798V13.1898H108.86V17.9998H109.8ZM118.24 11.6698V13.1898H119.28V14.0398H118.24V16.5398C118.24 16.7664 118.292 16.9331 118.395 17.0398C118.498 17.1464 118.67 17.1998 118.91 17.1998C119.05 17.1998 119.173 17.1864 119.28 17.1598V17.9598C119.12 18.0198 118.907 18.0498 118.64 18.0498C118.227 18.0498 117.9 17.9298 117.66 17.6898C117.42 17.4498 117.3 17.1131 117.3 16.6798V14.0398H116.38V13.1898H116.64C116.887 13.1898 117.072 13.1214 117.195 12.9848C117.318 12.8481 117.38 12.6698 117.38 12.4498V11.6698H118.24ZM121.47 17.9998V15.1698C121.483 14.7964 121.587 14.4914 121.78 14.2548C121.973 14.0181 122.243 13.8998 122.59 13.8998C123.337 13.8998 123.71 14.3031 123.71 15.1098V17.9998H124.65V14.9498C124.65 14.3898 124.502 13.9331 124.205 13.5798C123.908 13.2264 123.483 13.0498 122.93 13.0498C122.277 13.0498 121.79 13.2831 121.47 13.7498V10.7598H120.53V17.9998H121.47ZM126.76 15.0998H129.39C129.377 14.7398 129.257 14.4448 129.03 14.2148C128.803 13.9848 128.483 13.8698 128.07 13.8698C127.697 13.8698 127.39 13.9914 127.15 14.2348C126.91 14.4781 126.78 14.7664 126.76 15.0998ZM130.34 16.6298L129.53 16.3498C129.317 16.9964 128.867 17.3198 128.18 17.3198C127.773 17.3198 127.432 17.1831 127.155 16.9098C126.878 16.6364 126.737 16.2864 126.73 15.8598H130.35C130.363 15.7798 130.37 15.6798 130.37 15.5598C130.37 14.7931 130.167 14.1814 129.76 13.7248C129.353 13.2681 128.787 13.0398 128.06 13.0398C127.433 13.0398 126.893 13.2798 126.44 13.7598C125.987 14.2398 125.76 14.8464 125.76 15.5798C125.76 16.3664 125.995 16.9914 126.465 17.4548C126.935 17.9181 127.507 18.1498 128.18 18.1498C128.72 18.1498 129.18 18.0081 129.56 17.7248C129.94 17.4414 130.2 17.0764 130.34 16.6298Z" fill="black"/>
<path fill-rule="evenodd" clip-rule="evenodd" d="M63.12 37H65.216L60.8 25.656H58.576L54.16 37H56.192L57.248 34.152H62.048L63.12 37ZM59.648 27.736L61.376 32.376H57.92L59.648 27.736ZM68.416 40.04V36.12C68.816 36.712 69.664 37.192 70.784 37.192C73.024 37.192 74.448 35.432 74.448 33.096C74.448 30.792 73.152 29.032 70.848 29.032C69.648 29.032 68.752 29.592 68.368 30.264V29.208H66.576V40.04H68.416ZM72.592 33.096C72.592 34.584 71.728 35.544 70.496 35.544C69.28 35.544 68.4 34.584 68.4 33.096C68.4 31.64 69.28 30.68 70.496 30.68C71.744 30.68 72.592 31.64 72.592 33.096ZM78.08 40.04V36.12C78.48 36.712 79.328 37.192 80.448 37.192C82.688 37.192 84.112 35.432 84.112 33.096C84.112 30.792 82.816 29.032 80.512 29.032C79.312 29.032 78.416 29.592 78.032 30.264V29.208H76.24V40.04H78.08ZM82.256 33.096C82.256 34.584 81.392 35.544 80.16 35.544C78.944 35.544 78.064 34.584 78.064 33.096C78.064 31.64 78.944 30.68 80.16 30.68C81.408 30.68 82.256 31.64 82.256 33.096ZM97.488 28.312C97.232 27.048 96.192 25.416 93.52 25.416C91.408 25.416 89.664 26.984 89.664 28.888C89.664 30.584 90.816 31.72 92.544 32.072L94.144 32.408C95.12 32.616 95.664 33.208 95.664 33.944C95.664 34.824 94.96 35.512 93.6 35.512C91.968 35.512 91.12 34.424 91.008 33.24L89.216 33.752C89.392 35.384 90.72 37.24 93.6 37.24C96.192 37.24 97.616 35.56 97.616 33.8C97.616 32.2 96.544 30.936 94.544 30.536L92.912 30.2C92.032 30.008 91.584 29.464 91.584 28.744C91.584 27.88 92.384 27.112 93.536 27.112C95.056 27.112 95.648 28.152 95.76 28.856L97.488 28.312ZM101.808 26.824H100.128V27.992C100.128 28.68 99.76 29.208 98.928 29.208H98.528V30.856H99.968V34.776C99.968 36.232 100.864 37.096 102.304 37.096C102.976 37.096 103.328 36.968 103.44 36.92V35.384L103.235 35.4159C103.108 35.4323 102.946 35.448 102.8 35.448C102.112 35.448 101.808 35.16 101.808 34.472V30.856H103.424V29.208H101.808V26.824ZM108.72 35.576C107.584 35.576 106.544 34.712 106.544 33.096C106.544 31.48 107.584 30.648 108.72 30.648C109.872 30.648 110.896 31.48 110.896 33.096C110.896 34.728 109.872 35.576 108.72 35.576ZM108.72 28.968C106.4 28.968 104.688 30.712 104.688 33.096C104.688 35.496 106.4 37.24 108.72 37.24C111.056 37.24 112.768 35.496 112.768 33.096C112.768 30.712 111.056 28.968 108.72 28.968ZM119.12 29.16C119.04 29.144 118.848 29.112 118.624 29.112C117.6 29.112 116.736 29.608 116.368 30.456V29.208H114.56V37H116.416V33.288C116.416 31.832 117.072 31 118.512 31C118.704 31 118.912 31.016 119.12 31.048V29.16ZM121.936 32.248C122 31.416 122.672 30.52 123.84 30.52C125.12 30.52 125.728 31.336 125.76 32.248H121.936ZM125.968 34.28L127.536 34.776C127.12 36.136 125.888 37.24 124.016 37.24C121.904 37.24 120.032 35.704 120.032 33.064C120.032 30.6 121.856 28.968 123.824 28.968C126.224 28.968 127.632 30.552 127.632 33.016C127.632 33.32 127.6 33.576 127.584 33.608H121.888C121.936 34.792 122.864 35.64 124.016 35.64C125.136 35.64 125.712 35.048 125.968 34.28Z" fill="black"/>
<path fill-rule="evenodd" clip-rule="evenodd" d="M31.3938 14.5376C32.263 13.6005 32.8511 12.2986 32.6906 11C31.4371 11.0451 29.9185 11.7405 29.0204 12.6773C28.2133 13.5075 27.5079 14.8334 27.6963 16.1059C29.0955 16.2022 30.5228 15.4737 31.3938 14.5376ZM34.0616 23.502C34.0346 20.5912 36.3495 19.1944 36.4534 19.1258C35.1524 17.1502 33.125 16.8795 32.4037 16.8493C30.6791 16.6669 29.0385 17.902 28.1625 17.902C27.2897 17.902 25.9395 16.8737 24.5086 16.9009C22.628 16.9318 20.8947 18.035 19.9278 19.7834C17.974 23.3 19.4266 28.5109 21.3313 31.3629C22.2618 32.7597 23.3706 34.3261 24.8264 34.269C26.2303 34.2131 26.7604 33.3279 28.4561 33.3279C30.1509 33.3279 30.6278 34.269 32.1111 34.2407C33.6204 34.2131 34.5769 32.8174 35.5009 31.4171C36.5685 29.7983 37.008 28.23 37.0347 28.1505C37.0008 28.133 34.0923 26.979 34.0616 23.502Z" fill="black"/>
</svg>
