<svg width="42" height="43" viewBox="0 0 42 43" fill="none" xmlns="http://www.w3.org/2000/svg">
<path d="M36.3934 0L8.71332 7.94844L12.7407 26.935C11.4385 26.0113 9.87208 25.4713 8.18596 25.4713C3.66495 25.4713 0 29.3456 0 34.1247C0 38.9038 3.66495 42.7781 8.18596 42.7781C12.707 42.7781 16.3719 38.9038 16.3719 34.1247C16.3719 32.4636 15.9213 30.9174 15.1538 29.5996L11.9607 14.5464L35.84 6.61012L38.0239 17.8233C36.7132 16.8807 35.1308 16.3287 33.426 16.3287C28.905 16.3287 25.24 20.203 25.24 24.9821C25.24 29.7612 28.905 33.6354 33.426 33.6354C37.9469 33.6354 41.6119 29.7612 41.6119 24.9821C41.6119 23.3033 41.1522 21.7415 40.3695 20.4147L36.3934 0Z" fill="#F47457"/>
</svg>
